<?xml version="1.0" encoding="utf-8" ?>
<svg baseProfile="full" height="100" version="1.1" viewBox="0 0 100 100" width="100" xmlns="http://www.w3.org/2000/svg" xmlns:ev="http://www.w3.org/2001/xml-events" xmlns:xlink="http://www.w3.org/1999/xlink"><defs><mask height="87" id="mask_attar" maskUnits="userSpaceOnUse" width="50" x="24" y="7"><path d="M73 10C69 2 62 18 60 22C57 29 55 36 53 44C51 42 48 37 47 35C46 33 44 34 45 36C44 34 44 31 40 29C31 28 24 44 25 52C29 63 40 54 43 48C43 51 43 55 45 56C48 57 50 55 52 53C51 65 49 77 53 88C55 95 61 97 62 89C63 79 60 69 57 59C56 57 55 55 54 52C54 48 56 51 57 52C59 54 64 59 66 60C65 58 64 57 64 57C62 54 59 51 56 48C61 41 66 33 70 24C72 19 75 14 73 10Z" fill="white" /></mask></defs><g mask="url(#mask_attar)"><path d="M43 39C43 29 38 27 31 36C17 58 35 61 43 46C45 43 46 37 46 37C45 42 43 46 43 50C43 57 48 58 55 48C61 41 69 28 72 16C75 7 71 5 64 17C55 32 51 59 52 78C54 97 63 98 61 80C60 66 52 43 46 33C48 39 57 52 66 59" fill="none" stroke="white" stroke-linecap="round" stroke-width="2.5" /></g></svg>